<svg width="64" height="45" viewBox="0 0 64 45" fill="none" xmlns="http://www.w3.org/2000/svg">
<path fill-rule="evenodd" clip-rule="evenodd" d="M9.65051 0.287298C8.95734 0.465403 8.0121 0.777636 7.54999 0.981183C4.97895 2.11317 2.55294 4.43376 1.33027 6.93077C0.228411 9.18059 -0.0110431 10.2474 0.000383382 12.8507C0.00929036 14.866 0.0536559 15.1693 0.555258 16.642C1.33766 18.9396 2.31465 20.392 4.81612 22.9754L6.98453 25.2149L5.71716 30.6496C5.02013 33.6386 4.46676 36.1008 4.48743 36.1208C4.50827 36.1409 5.36999 36.2211 6.40244 36.2991L8.27946 36.4408L6.6145 40.6533C5.69867 42.9702 4.96837 44.9256 4.99156 44.9988C5.01475 45.0719 7.69719 41.8684 10.9525 37.8796L16.8711 30.6275H12.7717L17.8247 25.5304C23.3022 20.0051 23.6694 19.4459 24.6855 16.7656C25.594 14.0324 25.5878 11.3145 24.6669 8.55394C23.3844 4.70859 20.3052 1.73539 16.2882 0.463719C14.5896 -0.0739672 11.3874 -0.159058 9.65051 0.287298ZM19.488 12.7384C19.488 16.5069 16.4565 19.5619 12.717 19.5619C8.97757 19.5619 5.94613 16.5069 5.94613 12.7384C5.94613 8.96991 8.97757 5.91495 12.717 5.91495C16.4565 5.91495 19.488 8.96991 19.488 12.7384Z" fill="#303030"/>
<path fill-rule="evenodd" clip-rule="evenodd" d="M27.3625 33.1264C26.7092 33.8304 25.6956 34.235 24.192 34.235H24.1976C22.9302 34.2554 21.6809 33.9374 20.5823 33.3148L21.4326 31.4856C22.1762 31.9798 23.0527 32.2442 23.9499 32.245C25.2169 32.245 25.842 31.5466 25.842 30.2716V29.9612C25.5977 30.3302 25.2638 30.6334 24.8705 30.8434C24.4772 31.0534 24.0369 31.1637 23.5895 31.1641C21.8156 31.1641 20.3909 29.7395 20.3909 27.439V27.4113C20.3909 25.0942 21.8212 23.6696 23.5106 23.6696C23.9485 23.6652 24.3812 23.7635 24.7729 23.9562C25.1646 24.149 25.504 24.4308 25.7632 24.7783V23.8248H28.2973V29.9224C28.2973 31.3913 28.0157 32.4224 27.3625 33.1264ZM23.7434 28.8423C23.9319 28.9191 24.1345 28.9565 24.3384 28.9523H24.3159C24.5176 28.9497 24.7166 28.9068 24.9008 28.8261C25.0851 28.7454 25.2507 28.6286 25.3877 28.4829C25.5247 28.3372 25.6301 28.1656 25.6975 27.9785C25.765 27.7914 25.7931 27.5928 25.78 27.3947V27.367C25.7939 27.1692 25.7664 26.9708 25.6991 26.7839C25.6319 26.5971 25.5263 26.4258 25.389 26.2808C25.2517 26.1358 25.0856 26.0201 24.901 25.9409C24.7164 25.8617 24.5173 25.8207 24.3159 25.8204C24.1128 25.8207 23.912 25.862 23.7257 25.9417C23.5395 26.0214 23.3718 26.1378 23.233 26.2838C23.0942 26.4298 22.9873 26.6021 22.9188 26.7903C22.8504 26.9785 22.8218 27.1786 22.8349 27.378V27.4113C22.8224 27.6117 22.8522 27.8125 22.9225 28.001C22.9928 28.1894 23.1021 28.3615 23.2434 28.5063C23.3847 28.6511 23.5549 28.7655 23.7434 28.8423Z" fill="#303030"/>
<path fill-rule="evenodd" clip-rule="evenodd" d="M37.3468 27.827C37.3468 30.1109 35.6687 32.0233 33.3486 32.0233V31.9956C31.0623 31.9956 29.3729 30.1109 29.3729 27.827C29.3729 25.5377 31.0848 23.6253 33.3711 23.6253C35.6574 23.6253 37.3468 25.51 37.3468 27.7938V27.827ZM32.2202 29.0342C32.5016 29.3724 32.907 29.5879 33.3486 29.6341L33.3767 29.6064C34.3228 29.6064 34.8859 28.7916 34.8859 27.827C34.9068 27.6089 34.8838 27.3889 34.818 27.1796C34.7523 26.9702 34.6452 26.7758 34.5028 26.6073C34.3605 26.4389 34.1857 26.2998 33.9886 26.1981C33.7915 26.0963 33.5759 26.0339 33.3542 26.0144C32.4081 26.0144 31.845 26.8293 31.845 27.7938V27.827C31.804 28.2623 31.9388 28.696 32.2202 29.0342Z" fill="#303030"/>
<path fill-rule="evenodd" clip-rule="evenodd" d="M53.9762 33.1264C53.323 33.8304 52.3093 34.235 50.8058 34.235H50.8395C49.5721 34.2554 48.3228 33.9374 47.2242 33.3148L48.0689 31.4634C48.8125 31.9576 49.689 32.2221 50.5861 32.2228C51.8532 32.2228 52.4783 31.5244 52.4783 30.2494V29.939C52.234 30.308 51.9 30.6112 51.5068 30.8213C51.1135 31.0313 50.6732 31.1415 50.2257 31.1419C48.4519 31.1419 47.0271 29.7173 47.0271 27.4168V27.3891C47.0271 25.0721 48.4575 23.6474 50.1469 23.6474C50.5849 23.6426 51.0177 23.7406 51.4095 23.9334C51.8012 24.1263 52.1406 24.4083 52.3994 24.7561V23.8027H54.9335V29.9002C54.9335 31.3692 54.6294 32.4224 53.9762 33.1264ZM50.4036 28.8356C50.5894 28.9137 50.7895 28.9534 50.9916 28.9523C51.1932 28.9497 51.3923 28.9068 51.5765 28.8261C51.7608 28.7454 51.9264 28.6286 52.0634 28.4829C52.2004 28.3372 52.3058 28.1656 52.3732 27.9785C52.4407 27.7914 52.4687 27.5928 52.4557 27.3947V27.367C52.4696 27.1692 52.4421 26.9708 52.3748 26.7839C52.3076 26.5971 52.202 26.4258 52.0647 26.2808C51.9274 26.1358 51.7613 26.0201 51.5767 25.9409C51.3921 25.8617 51.193 25.8207 50.9916 25.8204C50.7885 25.8207 50.5876 25.862 50.4014 25.9417C50.2152 26.0214 50.0475 26.1378 49.9087 26.2838C49.7699 26.4298 49.663 26.6021 49.5945 26.7903C49.5261 26.9785 49.4975 27.1786 49.5105 27.378V27.4113C49.4982 27.6098 49.5274 27.8087 49.5964 27.9957C49.6653 28.1826 49.7726 28.3536 49.9114 28.4981C50.0503 28.6426 50.2178 28.7575 50.4036 28.8356Z" fill="#303030"/>
<path fill-rule="evenodd" clip-rule="evenodd" d="M64 27.827C64 30.1109 62.3219 31.9956 60.0017 31.9956C57.7154 31.9956 56.026 30.1109 56.026 27.827C56.026 25.5377 57.7379 23.6253 60.0243 23.6253C62.3106 23.6253 64 25.5432 64 27.827ZM59.3688 29.451C59.5655 29.5524 59.7806 29.6146 60.0017 29.6341C60.9289 29.7159 61.5109 28.7916 61.5109 27.827C61.5319 27.6089 61.5088 27.3889 61.443 27.1796C61.3773 26.9702 61.2702 26.7758 61.1278 26.6073C60.9855 26.4389 60.8108 26.2998 60.6136 26.1981C60.4165 26.0963 60.2009 26.0339 59.9792 26.0144C59.0332 26.0144 58.47 26.8293 58.47 27.7938V27.827C58.4499 28.0447 58.4736 28.2642 58.5397 28.4729C58.6058 28.6815 58.713 28.8753 58.8553 29.0432C58.9975 29.211 59.172 29.3496 59.3688 29.451Z" fill="#303030"/>
<path d="M45.6136 23.9135H38.597V25.8315H45.6136V23.9135Z" fill="#303030"/>
<path d="M38.597 26.9401H45.6136V28.8581H38.597V26.9401Z" fill="#303030"/>
<path d="M38.597 30.0222H45.6136V31.9346H38.597V30.0222Z" fill="#303030"/>
</svg>
